<svg width="24" height="24" viewBox="0 0 24 24" fill="none" xmlns="http://www.w3.org/2000/svg">
<g id="ic/24/social/facebook">
<path id="Shape" fill-rule="evenodd" clip-rule="evenodd" d="M19.5 3H4.5C3.65997 3 3 3.66003 3 4.5V19.5C3 20.34 3.65997 21 4.5 21H11.4H15H19.5C20.34 21 21 20.34 21 19.5V4.5C21 3.66003 20.34 3 19.5 3ZM12.0518 14.2609H9.79999V11.9652H12.0518V9.95654C12.0518 8.32092 13.2904 6.94348 14.8667 6.80005H17.4V9.0957H15.1481C14.6696 9.0957 14.3037 9.46875 14.3037 9.95654V11.9652H17.1185V14.2609H14.3037V20.2001H12.0518V14.2609ZM14.9286 20.2001H19.3214C19.8193 20.2001 20.2 19.8193 20.2 19.3215V4.67859C20.2 4.18079 19.8193 3.80005 19.3214 3.80005H4.67856C4.18069 3.80005 3.79999 4.18079 3.79999 4.67859V19.3215C3.79999 19.8193 4.18069 20.2001 4.67856 20.2001H11.4142V14.9286H9.07138V11.4143H11.4142V9.95007C11.4142 7.98792 12.9371 6.3186 14.8993 6.14294H18.15V9.65723H15.2214C15.0457 9.65723 14.9286 9.77429 14.9286 9.95007V11.4143H17.8571V14.9286H14.9286V20.2001Z" fill="white"/>
<mask id="mask0" mask-type="alpha" maskUnits="userSpaceOnUse" x="3" y="3" width="18" height="18">
<path id="Shape_2" fill-rule="evenodd" clip-rule="evenodd" d="M19.5 3H4.5C3.65997 3 3 3.66003 3 4.5V19.5C3 20.34 3.65997 21 4.5 21H11.4H15H19.5C20.34 21 21 20.34 21 19.5V4.5C21 3.66003 20.34 3 19.5 3ZM12.0518 14.2609H9.79999V11.9652H12.0518V9.95654C12.0518 8.32092 13.2904 6.94348 14.8667 6.80005H17.4V9.0957H15.1481C14.6696 9.0957 14.3037 9.46875 14.3037 9.95654V11.9652H17.1185V14.2609H14.3037V20.2001H12.0518V14.2609ZM14.9286 20.2001H19.3214C19.8193 20.2001 20.2 19.8193 20.2 19.3215V4.67859C20.2 4.18079 19.8193 3.80005 19.3214 3.80005H4.67856C4.18069 3.80005 3.79999 4.18079 3.79999 4.67859V19.3215C3.79999 19.8193 4.18069 20.2001 4.67856 20.2001H11.4142V14.9286H9.07138V11.4143H11.4142V9.95007C11.4142 7.98792 12.9371 6.3186 14.8993 6.14294H18.15V9.65723H15.2214C15.0457 9.65723 14.9286 9.77429 14.9286 9.95007V11.4143H17.8571V14.9286H14.9286V20.2001Z" fill="white"/>
</mask>
<g mask="url(#mask0)">
</g>
</g>
</svg>
