<svg width="121" height="40" viewBox="0 0 121 40" version="1.1" xmlns="http://www.w3.org/2000/svg" xmlns:xlink="http://www.w3.org/1999/xlink">
<title>Download_on_the_App_Store_Badge_US-UK_RGB_blk_092917</title>
<desc>Created using Figma</desc>
<g id="Canvas" transform="translate(161 -1345)">
<g id="Download_on_the_App_Store_Badge_US-UK_RGB_blk_092917">
<g id="Group">
<g id="Group">
<g id="Group">
<g id="Vector">
<use xlink:href="#path0_fill" transform="translate(-161 1345)" fill="#A6A6A6"/>
</g>
<g id="Vector">
<use xlink:href="#path1_fill" transform="translate(-160.12 1345.88)"/>
</g>
</g>
<g id="&#60;Group&#62;">
<g id="&#60;Group&#62;">
<g id="&#60;Group&#62;">
<g id="&#60;Path&#62;">
<use xlink:href="#path2_fill" transform="translate(-150.945 1358.97)" fill="#FFFFFF"/>
</g>
<g id="&#60;Path&#62;">
<use xlink:href="#path3_fill" transform="translate(-142.052 1353.72)" fill="#FFFFFF"/>
</g>
</g>
</g>
<g id="Group">
<g id="Vector">
<use xlink:href="#path4_fill" transform="translate(-126.285 1363.08)" fill="#FFFFFF"/>
</g>
<g id="Vector">
<use xlink:href="#path5_fill" transform="translate(-113.979 1366.35)" fill="#FFFFFF"/>
</g>
<g id="Vector">
<use xlink:href="#path6_fill" transform="translate(-103.93 1366.35)" fill="#FFFFFF"/>
</g>
<g id="Vector">
<use xlink:href="#path7_fill" transform="translate(-90.6081 1362.87)" fill="#FFFFFF"/>
</g>
<g id="Vector">
<use xlink:href="#path8_fill" transform="translate(-80.1671 1364.3)" fill="#FFFFFF"/>
</g>
<g id="Vector">
<use xlink:href="#path9_fill" transform="translate(-74.2154 1366.33)" fill="#FFFFFF"/>
</g>
<g id="Vector">
<use xlink:href="#path10_fill" transform="translate(-64.0097 1366.35)" fill="#FFFFFF"/>
</g>
<g id="Vector">
<use xlink:href="#path11_fill" transform="translate(-58.9364 1366.33)" fill="#FFFFFF"/>
</g>
</g>
</g>
</g>
<g id="&#60;Group&#62;">
<g id="Group">
<g id="Vector">
<use xlink:href="#path12_fill" transform="translate(-125.031 1353.72)" fill="#FFFFFF"/>
</g>
<g id="Vector">
<use xlink:href="#path13_fill" transform="translate(-118.981 1355.11)" fill="#FFFFFF"/>
</g>
<g id="Vector">
<use xlink:href="#path14_fill" transform="translate(-114.041 1355.19)" fill="#FFFFFF"/>
</g>
<g id="Vector">
<use xlink:href="#path15_fill" transform="translate(-106.696 1355.1)" fill="#FFFFFF"/>
</g>
<g id="Vector">
<use xlink:href="#path16_fill" transform="translate(-101.412 1353.44)" fill="#FFFFFF"/>
</g>
<g id="Vector">
<use xlink:href="#path17_fill" transform="translate(-99.2807 1355.11)" fill="#FFFFFF"/>
</g>
<g id="Vector">
<use xlink:href="#path18_fill" transform="translate(-94.0442 1355.11)" fill="#FFFFFF"/>
</g>
<g id="Vector">
<use xlink:href="#path19_fill" transform="translate(-89.0556 1353.44)" fill="#FFFFFF"/>
</g>
<g id="Vector">
<use xlink:href="#path20_fill" transform="translate(-81.118 1355.11)" fill="#FFFFFF"/>
</g>
<g id="Vector">
<use xlink:href="#path21_fill" transform="translate(-75.623 1355.1)" fill="#FFFFFF"/>
</g>
<g id="Vector">
<use xlink:href="#path22_fill" transform="translate(-68.3213 1354.07)" fill="#FFFFFF"/>
</g>
<g id="Vector">
<use xlink:href="#path23_fill" transform="translate(-64.4956 1353.44)" fill="#FFFFFF"/>
</g>
<g id="Vector">
<use xlink:href="#path24_fill" transform="translate(-59.4477 1355.11)" fill="#FFFFFF"/>
</g>
</g>
</g>
</g>
</g>
</g>
<defs>
<path id="path0_fill" d="M 111.055 0.00013L 9.61436 0.00013C 9.24459 0.00013 8.87927 0.00013 8.51048 0.00213C 8.20177 0.00413 7.89552 0.00994 7.58385 0.01483C 6.90675 0.0227318 6.23125 0.0818063 5.5632 0.19154C 4.8961 0.303663 4.24989 0.515046 3.64644 0.81854C 3.04372 1.1246 2.49301 1.5223 2.01426 1.9972C 1.53301 2.47077 1.13184 3.01815 0.826197 3.61829C 0.519707 4.21724 0.307186 4.85907 0.195974 5.52161C 0.0837046 6.18332 0.0232914 6.85265 0.0152766 7.52361C 0.00591905 7.83021 0.00493086 8.13783 0 8.44447L 0 31.5587C 0.00493086 31.8692 0.00591905 32.17 0.0152766 32.4806C 0.0232939 33.1516 0.0837071 33.8209 0.195974 34.4825C 0.306879 35.1455 0.519413 35.7877 0.826197 36.3868C 1.1317 36.985 1.53292 37.5302 2.01426 38.0011C 2.49119 38.4781 3.04226 38.8761 3.64644 39.1798C 4.24989 39.4841 4.89603 39.6968 5.5632 39.8106C 6.23136 39.9195 6.9068 39.9786 7.58385 39.9874C 7.89552 39.9942 8.20177 39.9981 8.51048 39.9981C 8.87926 40.0001 9.24461 40.0001 9.61436 40.0001L 111.055 40.0001C 111.418 40.0001 111.786 40.0001 112.148 39.9981C 112.455 39.9981 112.771 39.9942 113.078 39.9874C 113.754 39.9791 114.428 39.92 115.095 39.8106C 115.764 39.696 116.412 39.4834 117.019 39.1798C 117.622 38.8759 118.173 38.478 118.649 38.0011C 119.129 37.5284 119.532 36.9836 119.841 36.3868C 120.145 35.7872 120.356 35.1451 120.465 34.4825C 120.578 33.8208 120.64 33.1516 120.652 32.4806C 120.656 32.17 120.656 31.8692 120.656 31.5587C 120.664 31.1954 120.664 30.8341 120.664 30.4649L 120.664 9.53626C 120.664 9.17005 120.664 8.80677 120.656 8.44447C 120.656 8.13783 120.656 7.83021 120.652 7.52357C 120.64 6.85255 120.578 6.18337 120.465 5.52157C 120.356 4.85941 120.145 4.21763 119.841 3.61825C 119.218 2.41533 118.231 1.43616 117.019 0.81845C 116.412 0.515697 115.764 0.30437 115.095 0.19145C 114.428 0.0812328 113.754 0.0221378 113.078 0.01469C 112.771 0.00981 112.455 0.00395 112.148 0.002C 111.786 0 111.418 -3.55169e-13 111.055 -3.55169e-13L 111.055 0.00013Z"/>
<path id="path1_fill" d="M 7.6351 38.25C 7.32787 38.25 7.02807 38.2461 6.72325 38.2393C 6.0918 38.2311 5.46182 38.1766 4.83849 38.0762C 4.25726 37.9769 3.69421 37.7923 3.1679 37.5283C 2.64642 37.2665 2.17079 36.9233 1.75923 36.5117C 1.34171 36.105 0.994105 35.6332 0.730191 35.1152C 0.463369 34.5938 0.278713 34.0349 0.182654 33.458C 0.0789184 32.8381 0.0227933 32.2113 0.0147624 31.583C 0.00836937 31.3721 -2.04446e-08 30.6699 -2.04446e-08 30.6699L -2.04446e-08 7.56934C -2.04446e-08 7.56934 0.0089139 6.87793 0.0148128 6.6748C 0.0225023 6.04748 0.0783011 5.42165 0.181726 4.80273C 0.277962 4.22425 0.462762 3.66375 0.729728 3.14063C 0.992672 2.62294 1.33835 2.15086 1.75335 1.74268C 2.16789 1.33062 2.64504 0.985604 3.16741 0.72021C 3.69251 0.457094 4.25449 0.273733 4.83455 0.17627C 5.45993 0.0748361 6.09209 0.0199961 6.72573 0.01221L 7.63559 0L 111.263 0L 112.184 0.0127C 112.812 0.0200992 113.438 0.07445 114.058 0.17529C 114.644 0.273975 115.211 0.458616 115.742 0.72314C 116.789 1.25799 117.64 2.10416 118.178 3.14307C 118.44 3.66258 118.622 4.21851 118.717 4.79199C 118.822 5.41599 118.881 6.04674 118.893 6.6792C 118.896 6.9624 118.896 7.2666 118.896 7.56934C 118.903 7.94434 118.903 8.30127 118.903 8.66113L 118.903 29.5898C 118.903 29.9531 118.903 30.3076 118.896 30.665C 118.896 30.9902 118.896 31.2881 118.892 31.5947C 118.88 32.2159 118.822 32.8354 118.719 33.4482C 118.625 34.0293 118.442 34.5925 118.175 35.1182C 117.909 35.6306 117.563 36.0983 117.151 36.5039C 116.739 36.9177 116.262 37.2629 115.74 37.5264C 115.21 37.7924 114.643 37.9777 114.058 38.0762C 113.434 38.1772 112.804 38.2317 112.173 38.2393C 111.877 38.2461 111.568 38.25 111.268 38.25L 110.175 38.252L 7.6351 38.25Z"/>
<path id="path2_fill" d="M 14.921 6.32767C 14.9318 5.49301 15.1554 4.67463 15.5708 3.94868C 15.9863 3.22273 16.5802 2.61279 17.2972 2.17561C 16.8417 1.53045 16.2408 0.999512 15.5422 0.62496C 14.8436 0.250407 14.0665 0.0425631 13.2727 0.0179335C 11.5794 -0.158327 9.93788 1.02276 9.07502 1.02276C 8.19546 1.02276 6.86695 0.0354334 5.43637 0.0646234C 4.51102 0.0942715 3.6092 0.361125 2.81878 0.839183C 2.02835 1.31724 1.37627 1.9902 0.926068 2.79249C -1.02409 6.14091 0.43055 11.062 2.29864 13.7686C 3.23329 15.0939 4.32562 16.5744 5.75492 16.5219C 7.15357 16.4643 7.67594 15.6374 9.36423 15.6374C 11.0368 15.6374 11.5269 16.5219 12.9852 16.4885C 14.4861 16.4643 15.4316 15.1573 16.3335 13.8194C 17.005 12.875 17.5218 11.8313 17.8646 10.7268C 16.9927 10.3611 16.2486 9.74894 15.7251 8.96664C 15.2017 8.18435 14.922 7.26654 14.921 6.32767Z"/>
<path id="path3_fill" d="M 3.27369 3.49062C 4.092 2.51641 4.49515 1.26423 4.39752 1.5686e-07C 3.14733 0.130221 1.9925 0.72278 1.16314 1.65961C 0.757634 2.11728 0.447063 2.64971 0.249178 3.22648C 0.0512923 3.80325 -0.0300265 4.41304 0.00986871 5.021C 0.63519 5.02739 1.25382 4.89297 1.81917 4.62788C 2.38452 4.3628 2.88184 3.97395 3.27369 3.49062Z"/>
<path id="path4_fill" d="M 7.94081 9.06155L 3.16785 9.06155L 2.02164 12.418L -1.02657e-06 12.418L 4.52087 2.04468e-07L 6.62128 2.04468e-07L 11.1421 12.418L 9.08603 12.418L 7.94081 9.06155ZM 3.66218 7.51272L 7.44553 7.51272L 5.58047 2.06545L 5.52827 2.06545L 3.66218 7.51272Z"/>
<path id="path5_fill" d="M 8.59962 4.62375C 8.59962 7.43723 7.08118 9.24484 4.78973 9.24484C 4.20926 9.27495 3.63198 9.14235 3.12397 8.86221C 2.61597 8.58207 2.19778 8.16573 1.91729 7.66084L 1.87393 7.66084L 1.87393 12.1452L 2.70799e-08 12.1452L 2.70799e-08 0.0964001L 1.81389 0.0964001L 1.81389 1.60226L 1.84836 1.60226C 2.14174 1.09979 2.567 0.685604 3.07887 0.403758C 3.59074 0.121912 4.17009 -0.0170454 4.75526 0.00166968C 7.07227 0.00167968 8.59962 1.81808 8.59962 4.62375ZM 6.6735 4.62375C 6.6735 2.79075 5.71831 1.58566 4.26092 1.58566C 2.82914 1.58566 1.86607 2.81613 1.86607 4.62375C 1.86607 6.44797 2.82914 7.66965 4.26092 7.66965C 5.71832 7.66965 6.6735 6.47336 6.6735 4.62375Z"/>
<path id="path6_fill" d="M 8.59962 4.62374C 8.59962 7.43722 7.08118 9.24483 4.78973 9.24483C 4.20926 9.27494 3.63198 9.14234 3.12397 8.8622C 2.61597 8.58206 2.19778 8.16572 1.91729 7.66083L 1.87393 7.66083L 1.87393 12.1452L -3.8158e-08 12.1452L -3.8158e-08 0.0963906L 1.81385 0.0963906L 1.81385 1.60225L 1.84832 1.60225C 2.14171 1.09979 2.56696 0.685596 3.07883 0.403752C 3.59071 0.121908 4.17005 -0.0170482 4.75523 0.00166971C 7.07231 0.00166971 8.59962 1.81807 8.59962 4.62374ZM 6.6735 4.62374C 6.6735 2.79074 5.71831 1.58565 4.26092 1.58565C 2.82914 1.58565 1.86607 2.81612 1.86607 4.62374C 1.86607 6.44796 2.82914 7.66964 4.26092 7.66964C 5.71832 7.66964 6.6735 6.47335 6.6735 4.62374L 6.6735 4.62374Z"/>
<path id="path7_fill" d="M 1.91827 9.16509C 2.05712 10.3965 3.26342 11.2051 4.91183 11.2051C 6.49133 11.2051 7.6277 10.3965 7.6277 9.28614C 7.6277 8.32227 6.94232 7.74514 5.3195 7.34962L 3.69669 6.96192C 1.39736 6.41114 0.329911 5.34473 0.329911 3.61426C 0.329911 1.47168 2.21271 3.44238e-07 4.88623 3.44238e-07C 7.53215 3.44238e-07 9.34604 1.47168 9.40709 3.61426L 7.51541 3.61426C 7.40218 2.375 6.3692 1.62696 4.85962 1.62696C 3.35003 1.62696 2.31706 2.3838 2.31706 3.48536C 2.31706 4.36329 2.97683 4.87989 4.59079 5.27536L 5.97038 5.6113C 8.53952 6.21384 9.60697 7.2373 9.60697 9.05368C 9.60697 11.3769 7.74091 12.832 4.77295 12.832C 1.99603 12.832 0.121122 11.4111 -2.1787e-06 9.165L 1.91827 9.16509Z"/>
<path id="path8_fill" d="M 3.21019 8.72803e-07L 3.21019 2.14258L 4.94626 2.14258L 4.94626 3.61426L 3.21019 3.61426L 3.21019 8.60547C 3.21019 9.38086 3.5578 9.74219 4.32096 9.74219C 4.52706 9.73863 4.73282 9.72427 4.9374 9.69919L 4.9374 11.1621C 4.59428 11.2257 4.24554 11.2545 3.89654 11.248C 2.04823 11.248 1.3274 10.5595 1.3274 8.80368L 1.3274 3.61426L 5.48983e-07 3.61426L 5.48983e-07 2.14258L 1.32738 2.14258L 1.32738 8.72803e-07L 3.21019 8.72803e-07Z"/>
<path id="path9_fill" d="M 2.46181e-06 4.63867C 2.46181e-06 1.79004 1.69175 4.09546e-07 4.32983 4.09546e-07C 6.97677 4.09546e-07 8.66064 1.79 8.66064 4.63867C 8.66064 7.49512 6.98563 9.27734 4.32983 9.27734C 1.67497 9.27734 2.46181e-06 7.49511 2.46181e-06 4.63867ZM 6.75126 4.63867C 6.75126 2.68457 5.84827 1.53125 4.32982 1.53125C 2.81138 1.53125 1.90937 2.69336 1.90937 4.63867C 1.90937 6.60058 2.81138 7.74512 4.32982 7.74512C 5.84827 7.74512 6.75122 6.60058 6.75122 4.63867L 6.75126 4.63867Z"/>
<path id="path10_fill" d="M 8.11166e-06 0.0963143L 1.78728 0.0963143L 1.78728 1.63731L 1.83064 1.63731C 1.95156 1.15603 2.23587 0.730696 2.63577 0.432811C 3.03568 0.134926 3.52679 -0.0173529 4.02657 0.00157249C 4.24253 0.000824723 4.45788 0.0240849 4.66861 0.0709141L 4.66861 1.80919C 4.39598 1.72658 4.11159 1.68864 3.82664 1.69689C 3.5544 1.68594 3.283 1.73354 3.03107 1.83643C 2.77914 1.93931 2.55264 2.09505 2.36713 2.29294C 2.18162 2.49083 2.04149 2.72619 1.95635 2.98286C 1.87122 3.23953 1.8431 3.51143 1.87393 3.77989L 1.87393 9.15001L 4.18507e-07 9.15001L 8.11166e-06 0.0963143Z"/>
<path id="path11_fill" d="M 8.23524 6.50586C 7.98315 8.14941 6.36919 9.27734 4.30422 9.27734C 1.64842 9.27734 -1.97191e-06 7.51269 -1.97191e-06 4.68164C -1.97191e-06 1.8418 1.65728 8.72803e-07 4.22545 8.72803e-07C 6.75126 8.72803e-07 8.33963 1.7207 8.33963 4.46582L 8.33963 5.10254L 1.89166 5.10254L 1.89166 5.21484C 1.8619 5.54804 1.90396 5.88371 2.01506 6.19955C 2.12616 6.51539 2.30375 6.80417 2.53603 7.04672C 2.76831 7.28927 3.04997 7.48003 3.3623 7.60633C 3.67463 7.73264 4.01049 7.7916 4.34756 7.77929C 4.79039 7.82044 5.23479 7.71873 5.61464 7.48929C 5.9945 7.25985 6.28953 6.91493 6.45585 6.50585L 8.23524 6.50586ZM 1.90051 3.80371L 6.46471 3.80371C 6.48153 3.50411 6.43573 3.2043 6.33018 2.92309C 6.22462 2.64189 6.0616 2.38535 5.85133 2.16958C 5.64107 1.95382 5.3881 1.78348 5.10831 1.66926C 4.82852 1.55505 4.52794 1.49942 4.22545 1.50586C 3.92029 1.50405 3.61778 1.5622 3.3354 1.67694C 3.05302 1.79168 2.79635 1.96075 2.5802 2.17438C 2.36405 2.38802 2.1927 2.64199 2.07604 2.92164C 1.95938 3.20129 1.89973 3.50108 1.90051 3.80372L 1.90051 3.80371Z"/>
<path id="path12_fill" d="M 2.17328 0.00677079C 2.56615 -0.0211884 2.96038 0.0376716 3.32754 0.179105C 3.69469 0.320537 4.02562 0.541018 4.29645 0.824643C 4.56728 1.10827 4.77126 1.44797 4.89368 1.81924C 5.0161 2.19051 5.0539 2.5841 5.00436 2.97161C 5.00436 4.87786 3.96549 5.97361 2.17328 5.97361L 1.33676e-06 5.97361L 1.33676e-06 0.00677079L 2.17328 0.00677079ZM 0.934496 5.12977L 2.0689 5.12977C 2.34963 5.14641 2.63057 5.10076 2.89127 4.99615C 3.15197 4.89154 3.38587 4.73059 3.57594 4.52502C 3.766 4.31946 3.90746 4.07445 3.99 3.80783C 4.07255 3.54121 4.09411 3.25969 4.05311 2.98377C 4.09113 2.70894 4.06739 2.42917 3.98358 2.1645C 3.89976 1.89984 3.75796 1.65683 3.56832 1.4529C 3.37869 1.24897 3.14592 1.08917 2.88669 0.98493C 2.62746 0.880693 2.34819 0.83461 2.0689 0.849981L 0.934496 0.849981L 0.934496 5.12977Z"/>
<path id="path13_fill" d="M 0.0101285 2.33638C -0.0184172 2.04046 0.0157187 1.74189 0.110343 1.45982C 0.204968 1.17775 0.357991 0.918412 0.559604 0.698429C 0.761217 0.478447 1.00697 0.302681 1.28109 0.182406C 1.55521 0.0621302 1.85166 2.12805e-07 2.15141 2.12805e-07C 2.45116 2.12805e-07 2.74761 0.0621302 3.02173 0.182406C 3.29585 0.302681 3.5416 0.478447 3.74321 0.698429C 3.94483 0.918412 4.09785 1.17775 4.19248 1.45982C 4.2871 1.74189 4.32124 2.04046 4.29269 2.33638C 4.32178 2.6326 4.28805 2.93158 4.19368 3.21411C 4.0993 3.49663 3.94637 3.75645 3.7447 3.97686C 3.54304 4.19728 3.29711 4.37341 3.02271 4.49395C 2.74831 4.61448 2.45152 4.67675 2.15141 4.67675C 1.8513 4.67675 1.55451 4.61448 1.28011 4.49395C 1.00571 4.37341 0.75978 4.19728 0.558115 3.97686C 0.356451 3.75645 0.203517 3.49663 0.109143 3.21411C 0.0147689 2.93158 -0.018959 2.6326 0.0101285 2.33638ZM 3.37098 2.33638C 3.37098 1.36031 2.92884 0.789509 2.15289 0.789509C 1.37397 0.789509 0.935799 1.36031 0.935799 2.33639C 0.935799 3.32028 1.374 3.88668 2.15289 3.88668C 2.92886 3.88667 3.37099 3.31636 3.37099 2.33638L 3.37098 2.33638Z"/>
<path id="path14_fill" d="M 5.04572 4.50293L 4.11614 4.50293L 3.1777 1.18652L 3.10681 1.18652L 2.1723 4.50293L 1.25158 4.50293L -1.18413e-06 4.04053e-07L 0.908902 4.04053e-07L 1.72228 3.436L 1.78925 3.436L 2.72277 4.04053e-07L 3.58243 4.04053e-07L 4.51594 3.436L 4.58684 3.436L 5.39628 4.04053e-07L 6.29238 4.04053e-07L 5.04572 4.50293Z"/>
<path id="path15_fill" d="M 8.58433e-06 0.091353L 0.862619 0.091353L 0.862619 0.806682L 0.929584 0.806682C 1.04318 0.549762 1.23477 0.33439 1.47766 0.190584C 1.72054 0.0467778 2.00261 -0.0182965 2.28456 0.00443224C 2.50549 -0.0120407 2.72733 0.0209949 2.93364 0.101091C 3.13995 0.181187 3.32544 0.306291 3.47637 0.467135C 3.6273 0.627979 3.73981 0.820439 3.80556 1.03026C 3.87131 1.24008 3.88861 1.46188 3.85618 1.67923L 3.85618 4.59423L 2.96008 4.59423L 2.96008 1.90239C 2.96008 1.17876 2.64301 0.818893 1.98028 0.818893C 1.83028 0.811965 1.68054 0.837283 1.54133 0.893113C 1.40212 0.948943 1.27673 1.03396 1.17375 1.14235C 1.07077 1.25073 0.992644 1.37992 0.94472 1.52105C 0.896795 1.66218 0.880208 1.81192 0.896095 1.96L 0.896095 4.59428L 8.91175e-07 4.59428L 8.58433e-06 0.091353Z"/>
<path id="path16_fill" d="M -9.34256e-07 2.74658e-07L 0.896097 2.74658e-07L 0.896097 6.26074L -9.34256e-07 6.26074L -9.34256e-07 2.74658e-07Z"/>
<path id="path17_fill" d="M 0.0101026 2.33646C -0.0184212 2.04052 0.0157357 1.74194 0.110383 1.45986C 0.20503 1.17778 0.358079 0.918429 0.559713 0.698442C 0.761347 0.478454 1.00712 0.302686 1.28126 0.182409C 1.5554 0.0621314 1.85186 3.99286e-07 2.15163 3.99286e-07C 2.45141 3.99286e-07 2.74787 0.0621314 3.02201 0.182409C 3.29615 0.302686 3.54192 0.478454 3.74355 0.698442C 3.94518 0.918429 4.09823 1.17778 4.19288 1.45986C 4.28752 1.74194 4.32168 2.04052 4.29316 2.33646C 4.32221 2.6327 4.28845 2.93168 4.19405 3.21421C 4.09964 3.49673 3.94668 3.75654 3.745 3.97695C 3.54331 4.19736 3.29736 4.37348 3.02296 4.49401C 2.74855 4.61454 2.45175 4.67681 2.15163 4.67681C 1.85151 4.67681 1.55471 4.61454 1.2803 4.49401C 1.00589 4.37348 0.759946 4.19736 0.558263 3.97695C 0.356579 3.75654 0.203621 3.49673 0.109217 3.21421C 0.0148136 2.93168 -0.018948 2.6327 0.0101026 2.33646ZM 3.37096 2.33646C 3.37096 1.36039 2.92881 0.789593 2.15286 0.789593C 1.37395 0.789593 0.935777 1.36039 0.935777 2.33647C 0.935777 3.32036 1.37398 3.88676 2.15286 3.88676C 2.92882 3.88675 3.37096 3.31644 3.37096 2.33646L 3.37096 2.33646Z"/>
<path id="path18_fill" d="M 1.80943e-06 3.3164C 1.80943e-06 2.50585 0.608562 2.03857 1.68879 1.97216L 2.91872 1.90185L 2.91872 1.51318C 2.91872 1.03759 2.60164 0.76904 1.98914 0.76904C 1.48891 0.76904 1.14229 0.95117 1.04282 1.26953L 0.175283 1.26953C 0.266862 0.49609 1.00049 -3.07007e-07 2.0305 -3.07007e-07C 3.16885 -3.07007e-07 3.81088 0.562 3.81088 1.51318L 3.81088 4.58984L 2.94826 4.58984L 2.94826 3.95703L 2.87736 3.95703C 2.73345 4.18402 2.53138 4.36907 2.29177 4.49328C 2.05216 4.61749 1.7836 4.67641 1.51352 4.66403C 1.32291 4.68369 1.13025 4.66352 0.947983 4.60483C 0.765711 4.54613 0.597866 4.4502 0.455267 4.32323C 0.312668 4.19626 0.198484 4.04107 0.120069 3.86765C 0.0416541 3.69424 0.000752806 3.50645 1.80943e-06 3.3164ZM 2.91872 2.93163L 2.91872 2.55517L 1.80992 2.62548C 1.18462 2.66698 0.901016 2.87792 0.901016 3.27489C 0.901016 3.68016 1.25551 3.916 1.74299 3.916C 1.88582 3.93034 2.0301 3.91604 2.16724 3.87395C 2.30438 3.83186 2.43159 3.76284 2.54128 3.671C 2.65097 3.57915 2.74092 3.46637 2.80576 3.33935C 2.87061 3.21233 2.90902 3.07367 2.91872 2.93163Z"/>
<path id="path19_fill" d="M -2.11716e-07 4.00734C -2.11716e-07 2.58449 0.737563 1.68312 1.88476 1.68312C 2.16853 1.67015 2.45016 1.73756 2.69673 1.87745C 2.94329 2.01735 3.14461 2.22395 3.27716 2.47312L 3.34413 2.47312L 3.34413 2.74658e-07L 4.24022 2.74658e-07L 4.24022 6.26074L 3.38155 6.26074L 3.38155 5.54931L 3.31065 5.54931C 3.16786 5.7968 2.95952 6.00084 2.70818 6.13932C 2.45685 6.2778 2.17209 6.34545 1.88477 6.33495C 0.729685 6.335 -2.11716e-07 5.43361 -2.11716e-07 4.00734ZM 0.92567 4.00734C 0.92567 4.96242 1.37964 5.53713 2.13886 5.53713C 2.89412 5.53713 3.36089 4.95413 3.36089 4.01125C 3.36089 3.07277 2.88922 2.48146 2.13886 2.48146C 1.38453 2.48146 0.92564 3.06007 0.92564 4.00734L 0.92567 4.00734Z"/>
<path id="path20_fill" d="M 0.0101325 2.33638C -0.0184131 2.04046 0.0157189 1.74189 0.110344 1.45982C 0.204968 1.17775 0.357995 0.918412 0.559608 0.698429C 0.761221 0.478447 1.00696 0.302681 1.28109 0.182406C 1.55521 0.0621302 1.85166 2.12805e-07 2.15141 2.12805e-07C 2.45117 2.12805e-07 2.74761 0.0621302 3.02173 0.182406C 3.29585 0.302681 3.5416 0.478447 3.74321 0.698429C 3.94482 0.918412 4.09785 1.17775 4.19248 1.45982C 4.2871 1.74189 4.32124 2.04046 4.29269 2.33638C 4.32178 2.6326 4.28805 2.93158 4.19368 3.21411C 4.0993 3.49663 3.94637 3.75645 3.7447 3.97686C 3.54304 4.19728 3.29711 4.37341 3.02271 4.49395C 2.74831 4.61448 2.45152 4.67675 2.15141 4.67675C 1.8513 4.67675 1.55451 4.61448 1.28011 4.49395C 1.00571 4.37341 0.75978 4.19728 0.558116 3.97686C 0.356451 3.75645 0.203518 3.49663 0.109143 3.21411C 0.0147691 2.93158 -0.0189549 2.6326 0.0101325 2.33638ZM 3.37099 2.33638C 3.37099 1.36031 2.92884 0.789509 2.15289 0.789509C 1.37398 0.789509 0.935803 1.36031 0.935803 2.33639C 0.935803 3.32028 1.37401 3.88668 2.15289 3.88668C 2.92885 3.88667 3.37099 3.31636 3.37099 2.33638Z"/>
<path id="path21_fill" d="M -1.15705e-06 0.091353L 0.862617 0.091353L 0.862617 0.806682L 0.929585 0.806682C 1.04318 0.549762 1.23477 0.33439 1.47765 0.190584C 1.72054 0.0467778 2.00262 -0.0182965 2.28456 0.00443224C 2.50549 -0.0120407 2.72733 0.0209949 2.93364 0.101091C 3.13994 0.181187 3.32544 0.306291 3.47637 0.467135C 3.62731 0.627979 3.73982 0.820439 3.80556 1.03026C 3.87131 1.24008 3.8886 1.46188 3.85618 1.67923L 3.85618 4.59423L 2.96008 4.59423L 2.96008 1.90239C 2.96008 1.17876 2.64301 0.818893 1.98029 0.818893C 1.83028 0.811965 1.68054 0.837283 1.54133 0.893113C 1.40212 0.948943 1.27673 1.03396 1.17375 1.14235C 1.07077 1.25073 0.992642 1.37992 0.944718 1.52105C 0.896793 1.66218 0.880209 1.81192 0.896097 1.96L 0.896097 4.59428L -1.15705e-06 4.59428L -1.15705e-06 0.091353Z"/>
<path id="path22_fill" d="M 1.6179 4.6875e-07L 1.6179 1.1416L 2.60164 1.1416L 2.60164 1.89014L 1.6179 1.89014L 1.6179 4.20557C 1.6179 4.67725 1.81386 4.88379 2.25994 4.88379C 2.37414 4.88343 2.48823 4.87658 2.60164 4.86328L 2.60164 5.60351C 2.44072 5.63206 2.27767 5.64725 2.1142 5.64892C 1.11766 5.64892 0.720815 5.30126 0.720815 4.4331L 0.720815 1.8901L -2.60213e-06 1.8901L -2.60213e-06 1.14156L 0.720815 1.14156L 0.720815 4.6875e-07L 1.6179 4.6875e-07Z"/>
<path id="path23_fill" d="M 2.75476e-06 2.74658e-07L 0.888223 2.74658e-07L 0.888223 2.48145L 0.959116 2.48145C 1.07824 2.22213 1.27509 2.00554 1.52284 1.86119C 1.77059 1.71684 2.05719 1.65176 2.34359 1.67481C 2.56337 1.66295 2.78308 1.69934 2.98705 1.78138C 3.19102 1.86342 3.37422 1.9891 3.52358 2.14943C 3.67294 2.30977 3.78478 2.50082 3.85111 2.70896C 3.91744 2.91709 3.93664 3.13718 3.90733 3.35352L 3.90733 6.26075L 3.01034 6.26075L 3.01034 3.57275C 3.01034 2.85351 2.67254 2.48925 2.0394 2.48925C 1.88539 2.47672 1.73047 2.49772 1.58549 2.55077C 1.44051 2.60383 1.30898 2.68766 1.20008 2.79639C 1.09118 2.90513 1.00756 3.03615 0.955061 3.18029C 0.902561 3.32443 0.882451 3.4782 0.896139 3.63085L 0.896139 6.26073L 4.12205e-05 6.26073L 2.75476e-06 2.74658e-07Z"/>
<path id="path24_fill" d="M 4.08431 3.3741C 3.96256 3.78563 3.69877 4.14162 3.3391 4.37977C 2.97943 4.61792 2.54678 4.72307 2.11683 4.67683C 1.81769 4.68466 1.5204 4.62784 1.24562 4.51031C 0.970846 4.39278 0.725148 4.21736 0.525584 3.99622C 0.32602 3.77508 0.177375 3.51353 0.0899593 3.2297C 0.0025434 2.94588 -0.0215427 2.6466 0.0193669 2.35262C -0.0204681 2.05773 0.00404208 1.7578 0.0912517 1.47313C 0.178461 1.18845 0.326333 0.925686 0.524845 0.702612C 0.723358 0.479539 0.967881 0.301367 1.24186 0.18016C 1.51584 0.0589523 1.81289 -0.00246132 2.11288 7.56723e-05C 3.37628 7.56723e-05 4.13846 0.856075 4.13846 2.27008L 4.13846 2.58017L 0.932198 2.58017L 0.932198 2.62997C 0.918166 2.79521 0.939114 2.96154 0.993689 3.11829C 1.04826 3.27504 1.13527 3.41875 1.24912 3.54021C 1.36297 3.66166 1.50116 3.75818 1.65482 3.82358C 1.80849 3.88898 1.97423 3.92181 2.14144 3.91997C 2.35579 3.94548 2.57295 3.90721 2.76531 3.81C 2.95766 3.71279 3.11652 3.56105 3.22168 3.37407L 4.08431 3.3741ZM 0.932175 1.92293L 3.2256 1.92293C 3.23689 1.7718 3.21618 1.62 3.1648 1.47728C 3.11341 1.33456 3.0325 1.20408 2.92724 1.09422C 2.82198 0.984367 2.69471 0.897562 2.55361 0.839386C 2.41251 0.781211 2.2607 0.752952 2.10793 0.756425C 1.95295 0.754494 1.79914 0.783352 1.65558 0.841297C 1.51202 0.899241 1.38162 0.985101 1.27204 1.09381C 1.16247 1.20253 1.07595 1.33189 1.01758 1.47429C 0.959218 1.61669 0.930183 1.76923 0.932198 1.92293L 0.932175 1.92293Z"/>
</defs>
</svg>
