<svg width="24" height="24" viewBox="0 0 24 24" fill="none" xmlns="http://www.w3.org/2000/svg">
<g id="ic/24/social/instagram">
<path id="Combined Shape" fill-rule="evenodd" clip-rule="evenodd" d="M11.2749 3.23413C11.4233 3.08508 11.6298 3 11.84 3C12.0509 3 12.2575 3.08508 12.4058 3.23413C12.5549 3.38257 12.64 3.58911 12.64 3.80005C12.64 4.01013 12.5549 4.21667 12.4058 4.36584C12.2567 4.51416 12.0509 4.59998 11.84 4.59998C11.6298 4.59998 11.4233 4.51416 11.2749 4.36584C11.1258 4.21667 11.04 4.01025 11.04 3.80005C11.04 3.58911 11.1258 3.38257 11.2749 3.23413ZM3 9.40002C3 11.5173 4.72272 13.2397 6.84 13.2397C8.95728 13.2397 10.68 11.5173 10.68 9.40002C10.68 7.28259 8.95743 5.56006 6.84 5.56006C4.72256 5.56006 3 7.28259 3 9.40002Z" fill="white"/>
<mask id="mask0" mask-type="alpha" maskUnits="userSpaceOnUse" x="7" y="5" width="11" height="12">
<path id="Combined Shape_2" fill-rule="evenodd" clip-rule="evenodd" d="M16.4349 5.83411C16.5833 5.68506 16.7898 5.59998 17 5.59998C17.2109 5.59998 17.4175 5.68506 17.5658 5.83411C17.7149 5.98254 17.8 6.18909 17.8 6.40002C17.8 6.61011 17.7149 6.81665 17.5658 6.96582C17.4167 7.11414 17.2109 7.19995 17 7.19995C16.7898 7.19995 16.5833 7.11414 16.4349 6.96582C16.2858 6.81665 16.2 6.61023 16.2 6.40002C16.2 6.18909 16.2858 5.98254 16.4349 5.83411ZM12 7.36206C9.44244 7.36206 7.36182 9.44275 7.36182 12.0002C7.36182 14.5576 9.44244 16.6382 12 16.6382C14.5575 16.6382 16.6381 14.5576 16.6381 12.0002C16.6381 9.44275 14.5575 7.36206 12 7.36206ZM12 15.8397C9.88275 15.8397 8.16003 14.1173 8.16003 12C8.16003 9.88257 9.8826 8.16003 12 8.16003C14.1175 8.16003 15.84 9.88257 15.84 12C15.84 14.1173 14.1173 15.8397 12 15.8397Z" fill="white"/>
</mask>
<g mask="url(#mask0)">
</g>
</g>
</svg>
